<svg xmlns="http://www.w3.org/2000/svg" width="1200" height="630" viewBox="0 0 1200 630"><defs><linearGradient id="g" x2="0" y2="1"><stop stop-color="#2077ea"/><stop offset="1" stop-color="#101712"/></linearGradient><linearGradient id="a" x2="1" y2="1"><stop stop-color="hsl(108 48% 48%)"/><stop offset="1" stop-color="hsl(213 45% 30%)"/></linearGradient></defs><rect width="1200" height="630" fill="url(#g)"/><circle cx="1010" cy="142" r="91" fill="url(#a)"/><path d="M0 500 190 355l92 87 173-220 102 174 160-132 89 104 176-180 218 187v255H0Z" fill="#09110d" opacity=".75"/><rect x="56" y="481" width="55" height="109" rx="5" fill="#dff0d9" opacity="0.08"/><rect x="214" y="523" width="53" height="67" rx="5" fill="#dff0d9" opacity="0.11"/><rect x="372" y="510" width="88" height="80" rx="5" fill="#dff0d9" opacity="0.14"/><rect x="530" y="468" width="80" height="122" rx="5" fill="#dff0d9" opacity="0.08"/><rect x="688" y="488" width="56" height="102" rx="5" fill="#dff0d9" opacity="0.11"/><rect x="846" y="552" width="77" height="38" rx="5" fill="#dff0d9" opacity="0.14"/><rect x="1004" y="494" width="52" height="96" rx="5" fill="#dff0d9" opacity="0.08"/><text x="72" y="83" fill="#c5dc87" font-family="Arial,sans-serif" font-size="21" font-weight="700" letter-spacing="7">MACCA BLOG · NEWS</text><text x="72" y="338" fill="#f5f5ed" font-family="Arial,sans-serif" font-size="43" font-weight="700">GTA 6 Pre-Release Case</text><text x="72" y="400" fill="#f5f5ed" font-family="Arial,sans-serif" font-size="43" font-weight="700">Surfaces in Stores,</text><text x="72" y="462" fill="#f5f5ed" font-family="Arial,sans-serif" font-size="43" font-weight="700">Reddit Shows Official</text><path d="M72 535h1056" stroke="#91b543" stroke-width="2" opacity=".7"/><text x="72" y="578" fill="#b8c5bb" font-family="Arial,sans-serif" font-size="19" letter-spacing="3">INDEPENDENT REPORTING · 2026-09-29</text></svg>