<svg xmlns="http://www.w3.org/2000/svg" width="1200" height="630" viewBox="0 0 1200 630"><defs><linearGradient id="g" x2="0" y2="1"><stop stop-color="#20c259"/><stop offset="1" stop-color="#101712"/></linearGradient><linearGradient id="a" x2="1" y2="1"><stop stop-color="hsl(113 48% 48%)"/><stop offset="1" stop-color="hsl(226 45% 30%)"/></linearGradient></defs><rect width="1200" height="630" fill="url(#g)"/><circle cx="1010" cy="142" r="91" fill="url(#a)"/><path d="M0 500 190 355l92 87 173-220 102 174 160-132 89 104 176-180 218 187v255H0Z" fill="#09110d" opacity=".75"/><rect x="56" y="514" width="54" height="76" rx="5" fill="#dff0d9" opacity="0.08"/><rect x="214" y="564" width="60" height="26" rx="5" fill="#dff0d9" opacity="0.11"/><rect x="372" y="541" width="74" height="49" rx="5" fill="#dff0d9" opacity="0.14"/><rect x="530" y="467" width="78" height="123" rx="5" fill="#dff0d9" opacity="0.08"/><rect x="688" y="507" width="81" height="83" rx="5" fill="#dff0d9" opacity="0.11"/><rect x="846" y="527" width="59" height="63" rx="5" fill="#dff0d9" opacity="0.14"/><rect x="1004" y="512" width="71" height="78" rx="5" fill="#dff0d9" opacity="0.08"/><text x="72" y="83" fill="#c5dc87" font-family="Arial,sans-serif" font-size="21" font-weight="700" letter-spacing="7">MACCA BLOG · GTA 6</text><text x="72" y="338" fill="#f5f5ed" font-family="Arial,sans-serif" font-size="43" font-weight="700">Reddit post claims GTA</text><text x="72" y="400" fill="#f5f5ed" font-family="Arial,sans-serif" font-size="43" font-weight="700">6 Collector&#39;s Edition</text><text x="72" y="462" fill="#f5f5ed" font-family="Arial,sans-serif" font-size="43" font-weight="700">price is &#39;genius</text><path d="M72 535h1056" stroke="#91b543" stroke-width="2" opacity=".7"/><text x="72" y="578" fill="#b8c5bb" font-family="Arial,sans-serif" font-size="19" letter-spacing="3">INDEPENDENT REPORTING · 2026-09-29</text></svg>